<?xml version="1.0" standalone="no"?>
<!DOCTYPE svg PUBLIC "-//W3C//DTD SVG 20010904//EN"
 "http://www.w3.org/TR/2001/REC-SVG-20010904/DTD/svg10.dtd">
<svg version="1.0" xmlns="http://www.w3.org/2000/svg"
 width="144.000000pt" height="66.000000pt" viewBox="0 0 144.000000 66.000000"
 preserveAspectRatio="xMidYMid meet">

<g transform="translate(0.000000,66.000000) scale(0.100000,-0.100000)"
fill="#000000" stroke="none">
<path d="M704 643 c-13 -42 -40 -86 -62 -101 -12 -8 -22 -22 -20 -31 3 -23
-29 -78 -52 -91 -11 -6 -20 -20 -20 -31 0 -23 -33 -76 -63 -100 -40 -32 -16
-44 84 -43 91 1 93 1 100 26 4 14 18 42 31 62 l25 36 26 -39 c15 -22 24 -47
21 -55 -9 -23 13 -29 103 -29 89 0 122 13 93 36 -22 16 -60 81 -60 100 0 9 -9
22 -21 31 -27 18 -69 80 -69 101 0 8 -7 18 -15 22 -18 6 -48 57 -55 93 -6 30
-38 39 -46 13z m49 -72 c14 -21 23 -42 20 -45 -9 -9 -91 -7 -97 2 -4 8 39 82
48 82 2 0 15 -18 29 -39z m22 -71 c6 -10 -35 -80 -47 -80 -12 0 -58 72 -52 82
7 11 91 10 99 -2z m34 -98 c-28 -2 -53 -1 -56 1 -2 3 8 24 22 47 l27 43 29
-44 29 -44 -51 -3z m-130 44 c12 -18 21 -36 21 -40 0 -3 -22 -6 -50 -6 -27 0
-50 3 -50 6 0 13 42 74 50 74 5 0 18 -15 29 -34z m21 -72 c0 -13 -42 -74 -50
-74 -8 0 -50 61 -50 74 0 3 23 6 50 6 28 0 50 -3 50 -6z m145 -21 c-44 -69
-40 -67 -69 -23 -14 22 -26 42 -26 45 0 3 25 5 56 5 l56 0 -17 -27z m73 -34
c12 -20 19 -39 15 -42 -8 -8 -113 -9 -113 -1 0 15 63 95 69 87 5 -4 17 -24 29
-44z m-315 2 c14 -21 23 -42 20 -45 -11 -10 -103 -7 -103 4 0 13 43 80 51 80
4 0 18 -18 32 -39z"/>
<path d="M38 100 c-19 -43 -23 -60 -13 -60 7 0 15 7 19 15 7 20 66 20 66 0 0
-8 7 -15 15 -15 12 0 10 11 -10 56 -14 31 -25 58 -25 60 0 2 -6 4 -13 4 -7 0
-24 -27 -39 -60z m52 4 c0 -8 -7 -14 -15 -14 -17 0 -18 2 -9 24 7 18 24 12 24
-10z"/>
<path d="M160 100 l0 -60 40 0 c22 0 40 5 40 10 0 6 -13 10 -30 10 -29 0 -30
1 -30 50 0 28 -4 50 -10 50 -6 0 -10 -27 -10 -60z"/>
<path d="M260 100 c0 -33 4 -60 10 -60 6 0 10 7 10 15 0 9 9 15 24 15 27 0 56
24 56 45 0 24 -31 45 -66 45 l-34 0 0 -60z m68 18 c-2 -15 -11 -24 -25 -26
-19 -3 -23 1 -23 22 0 21 5 26 26 26 21 0 25 -4 22 -22z"/>
<path d="M380 100 c0 -47 3 -60 15 -60 9 0 15 9 15 25 0 20 5 25 25 25 20 0
25 -5 25 -25 0 -16 6 -25 15 -25 12 0 15 13 15 60 0 47 -3 60 -15 60 -9 0 -15
-9 -15 -25 0 -20 -5 -25 -25 -25 -20 0 -25 5 -25 25 0 16 -6 25 -15 25 -12 0
-15 -13 -15 -60z"/>
<path d="M533 104 c-14 -30 -22 -58 -18 -62 3 -4 11 1 16 11 13 22 58 22 75 0
7 -10 15 -15 18 -12 9 9 -42 119 -54 119 -6 0 -23 -25 -37 -56z m42 -12 c-22
-5 -27 1 -19 23 7 17 8 17 21 -1 12 -17 12 -19 -2 -22z"/>
<path d="M723 150 c-43 -17 -41 -84 4 -101 38 -14 73 -1 73 27 0 13 -4 24 -10
24 -5 0 -10 -9 -10 -20 0 -20 -15 -25 -44 -14 -21 8 -21 60 0 68 8 3 26 3 40
0 13 -3 24 -2 24 4 0 5 -10 12 -22 16 -28 7 -27 7 -55 -4z"/>
<path d="M843 104 c-14 -30 -22 -58 -18 -62 3 -4 11 1 16 11 13 22 58 22 75 0
7 -10 15 -15 18 -12 9 9 -42 119 -54 119 -6 0 -23 -25 -37 -56z m42 -12 c-22
-5 -27 1 -19 23 7 17 8 17 21 -1 12 -17 12 -19 -2 -22z"/>
<path d="M960 100 l0 -60 33 0 c45 0 77 25 77 60 0 35 -32 60 -77 60 l-33 0 0
-60z m84 18 c15 -25 -3 -52 -38 -56 -24 -3 -26 -1 -26 38 0 39 2 41 26 38 15
-2 32 -11 38 -20z"/>
<path d="M1123 150 c-43 -17 -41 -84 4 -101 38 -14 73 -1 73 27 0 13 -4 24
-10 24 -5 0 -10 -9 -10 -20 0 -20 -15 -25 -44 -14 -21 8 -21 60 0 68 8 3 26 3
40 0 13 -3 24 -2 24 4 0 5 -10 12 -22 16 -28 7 -27 7 -55 -4z"/>
<path d="M1230 100 l0 -60 45 0 c25 0 45 5 45 10 0 6 -13 10 -30 10 -20 0 -30
5 -30 15 0 9 9 15 25 15 14 0 25 5 25 10 0 6 -11 10 -25 10 -16 0 -25 6 -25
15 0 10 10 15 30 15 17 0 30 5 30 10 0 6 -20 10 -45 10 l-45 0 0 -60z"/>
<path d="M1330 150 c0 -5 9 -10 20 -10 17 0 20 -7 20 -50 0 -27 5 -50 10 -50
6 0 10 23 10 50 0 43 3 50 20 50 11 0 20 5 20 10 0 6 -22 10 -50 10 -27 0 -50
-4 -50 -10z"/>
</g>
</svg>
